<svg xmlns="http://www.w3.org/2000/svg" width="36" height="36" viewBox="0 0 36 36" version="1.1"><path d="M 11.750 1.080 C 9.290 2.513, 9.464 4.357, 11.934 3.035 C 14.696 1.557, 21.632 1.757, 24.800 3.405 C 28.374 5.265, 31.613 8.830, 32.961 12.389 C 34.233 15.745, 35.524 15.223, 34.642 11.709 C 33.687 7.905, 29.986 3.898, 25.579 1.896 C 21.114 -0.131, 14.500 -0.522, 11.750 1.080 M 13.500 4.493 C 8.034 6.446, 2.364 13.871, 5.065 15.540 C 5.547 15.838, 6.229 14.937, 6.580 13.538 C 7.983 7.947, 16.598 3.756, 22.260 5.909 C 23.829 6.505, 25 6.559, 25 6.034 C 25 3.646, 18.363 2.757, 13.500 4.493 M 4.140 7.549 C 2.992 9.009, 1.790 11.845, 1.469 13.851 C 1.148 15.858, 0.677 18.512, 0.423 19.750 C 0.170 20.988, 0.368 22, 0.864 22 C 1.862 22, 2.965 18.613, 2.986 15.485 C 2.994 14.377, 3.927 11.741, 5.059 9.628 C 7.535 5.008, 7.033 3.871, 4.140 7.549 M 12.057 8.672 C 9.209 10.667, 7 15.846, 7 20.527 C 7 25.589, 8.628 23.996, 9.269 18.305 C 9.680 14.663, 10.514 12.930, 12.872 10.823 C 16.263 7.793, 15.645 6.160, 12.057 8.672 M 20.998 9.291 C 24.241 10.884, 25.745 12.337, 26.385 14.500 C 28.090 20.259, 28.330 20.629, 28.758 18.155 C 29.703 12.695, 24.546 6.938, 18.800 7.041 C 17.029 7.073, 17.535 7.590, 20.998 9.291 M 27 7.151 C 27 7.478, 27.940 9.872, 29.090 12.470 C 30.914 16.593, 31.051 17.914, 30.170 22.847 C 29.614 25.956, 28.851 29.288, 28.473 30.250 C 28.079 31.253, 28.242 32, 28.854 32 C 30.621 32, 32.230 23.949, 31.803 17.245 C 31.498 12.449, 30.880 10.436, 29.201 8.757 C 27.991 7.546, 27 6.823, 27 7.151 M 13.768 11.968 C 11.972 13.380, 11.086 15.286, 10.629 18.718 C 10.278 21.348, 9.093 24.973, 7.995 26.774 C 5.729 30.493, 5.607 31, 6.980 31 C 8.493 31, 11.874 23.678, 12.592 18.842 C 13.609 11.999, 18.140 9.904, 22.686 14.174 C 24.588 15.962, 25 16.061, 25 14.731 C 25 12.698, 21.243 10, 18.412 10 C 17.234 10, 15.144 10.886, 13.768 11.968 M 15.571 14.571 C 13.975 16.168, 13.477 18, 14.640 18 C 14.992 18, 15.864 17.212, 16.579 16.250 C 17.750 14.671, 18.032 14.651, 19.447 16.044 C 20.709 17.286, 20.844 18.510, 20.137 22.294 C 19.654 24.882, 19.602 27, 20.022 27 C 21.241 27, 22 24.169, 22 19.618 C 22 13.524, 18.985 11.157, 15.571 14.571 M 16.990 20.250 C 16.985 22.038, 15.860 25.907, 14.490 28.849 C 11.679 34.887, 11.554 35.394, 13.103 34.436 C 16.503 32.335, 20.810 17, 18 17 C 17.450 17, 16.996 18.462, 16.990 20.250 M 33.821 21.075 C 33.395 25.542, 34.418 27.299, 35.373 23.739 C 36.261 20.424, 36.125 17, 35.105 17 C 34.613 17, 34.035 18.834, 33.821 21.075 M 3.730 20.750 C 3.453 21.712, 2.903 23.288, 2.506 24.250 C 2.100 25.237, 2.226 26, 2.795 26 C 3.590 26, 6 20.999, 6 19.351 C 6 18.163, 4.145 19.306, 3.730 20.750 M 23.967 20.750 C 23.938 22.323, 21.525 29.691, 19.546 34.250 C 19.114 35.246, 19.210 36, 19.770 36 C 20.311 36, 21.654 33.862, 22.755 31.250 C 25.291 25.232, 26.456 19, 25.045 19 C 24.470 19, 23.985 19.788, 23.967 20.750 M 13.677 21.750 C 13.434 22.163, 12.910 24.075, 12.512 26 C 11.601 30.413, 13.585 28.932, 14.948 24.183 C 15.753 21.373, 14.881 19.704, 13.677 21.750 M 26.379 25.750 C 26.016 27.262, 25.109 29.712, 24.363 31.193 C 23.618 32.675, 23.390 34.123, 23.857 34.412 C 24.325 34.701, 25.282 33.714, 25.983 32.219 C 27.826 28.291, 28.934 23, 27.914 23 C 27.432 23, 26.741 24.238, 26.379 25.750 M 4.607 26.582 C 3.668 29.028, 3.872 29.351, 5.500 28 C 7.162 26.620, 7.490 25, 6.107 25 C 5.616 25, 4.941 25.712, 4.607 26.582 M 9.667 30.667 C 8.711 31.622, 8.845 33, 9.893 33 C 10.384 33, 11.045 32.325, 11.362 31.500 C 11.947 29.976, 10.881 29.452, 9.667 30.667 M 16.557 32.223 C 14.848 34.662, 14.574 36, 15.784 36 C 16.216 36, 17.366 34.650, 18.341 33 C 20.382 29.544, 18.889 28.893, 16.557 32.223" stroke="none" fill="#ededed" fill-rule="evenodd"/><path d="M 0.118 10.250 C 0.215 18.711, 0.372 19.692, 1.017 15.872 C 1.888 10.719, 3.127 7.969, 5.445 6.045 C 7.430 4.398, 7.452 5.909, 5.486 8.717 C 4.653 9.906, 3.519 13.269, 2.966 16.190 C 2.413 19.110, 1.520 21.650, 0.980 21.833 C 0.441 22.017, -0 25.279, -0 29.083 L 0 36 7.250 35.994 C 14.253 35.988, 14.558 35.886, 16.203 32.994 C 17.140 31.347, 18.430 30, 19.068 30 C 19.828 30, 19.671 30.853, 18.615 32.465 C 16.780 35.266, 16.626 36, 17.877 36 C 19.025 36, 22.636 27.530, 23.525 22.750 C 23.909 20.687, 24.643 19, 25.157 19 C 26.438 19, 25.189 25.530, 22.886 30.877 C 21.849 33.285, 21 35.441, 21 35.669 C 21 35.897, 24.487 35.953, 28.750 35.792 L 36.500 35.500 36.695 28 C 36.880 20.877, 36.820 20.651, 35.490 23.500 C 33.964 26.771, 33.696 26.324, 33.992 21 C 34.223 16.840, 34.778 16.035, 36.039 18.029 C 36.650 18.995, 36.975 16.156, 36.985 9.750 L 37 0 29.250 0.022 L 21.500 0.044 25.579 1.896 C 29.986 3.898, 33.687 7.905, 34.642 11.709 C 35.524 15.223, 34.233 15.745, 32.961 12.389 C 31.613 8.830, 28.374 5.265, 24.800 3.405 C 21.632 1.757, 14.696 1.557, 11.934 3.035 C 9.464 4.357, 9.290 2.513, 11.750 1.080 C 13.065 0.314, 11.824 0.053, 6.750 0.030 L 0 0 0.118 10.250 M 0.365 10.500 C 0.368 16, 0.536 18.122, 0.738 15.216 C 0.941 12.311, 0.939 7.811, 0.734 5.216 C 0.528 2.622, 0.363 5, 0.365 10.500 M 13.500 4.493 C 8.034 6.446, 2.364 13.871, 5.065 15.540 C 5.547 15.838, 6.229 14.937, 6.580 13.538 C 7.983 7.947, 16.598 3.756, 22.260 5.909 C 23.829 6.505, 25 6.559, 25 6.034 C 25 3.646, 18.363 2.757, 13.500 4.493 M 12.057 8.672 C 9.209 10.667, 7 15.846, 7 20.527 C 7 25.589, 8.628 23.996, 9.269 18.305 C 9.680 14.663, 10.514 12.930, 12.872 10.823 C 16.263 7.793, 15.645 6.160, 12.057 8.672 M 20.998 9.291 C 24.241 10.884, 25.745 12.337, 26.385 14.500 C 28.090 20.259, 28.330 20.629, 28.758 18.155 C 29.703 12.695, 24.546 6.938, 18.800 7.041 C 17.029 7.073, 17.535 7.590, 20.998 9.291 M 27 7.151 C 27 7.478, 27.940 9.872, 29.090 12.470 C 30.914 16.593, 31.051 17.914, 30.170 22.847 C 29.614 25.956, 28.851 29.288, 28.473 30.250 C 28.079 31.253, 28.242 32, 28.854 32 C 30.621 32, 32.230 23.949, 31.803 17.245 C 31.498 12.449, 30.880 10.436, 29.201 8.757 C 27.991 7.546, 27 6.823, 27 7.151 M 13.768 11.968 C 11.972 13.380, 11.086 15.286, 10.629 18.718 C 10.278 21.348, 9.093 24.973, 7.995 26.774 C 5.729 30.493, 5.607 31, 6.980 31 C 8.493 31, 11.874 23.678, 12.592 18.842 C 13.609 11.999, 18.140 9.904, 22.686 14.174 C 24.588 15.962, 25 16.061, 25 14.731 C 25 12.698, 21.243 10, 18.412 10 C 17.234 10, 15.144 10.886, 13.768 11.968 M 15.571 14.571 C 13.975 16.168, 13.477 18, 14.640 18 C 14.992 18, 15.864 17.212, 16.579 16.250 C 17.750 14.671, 18.032 14.651, 19.447 16.044 C 20.709 17.286, 20.844 18.510, 20.137 22.294 C 19.654 24.882, 19.602 27, 20.022 27 C 21.241 27, 22 24.169, 22 19.618 C 22 13.524, 18.985 11.157, 15.571 14.571 M 16.990 20.250 C 16.985 22.038, 15.860 25.907, 14.490 28.849 C 11.679 34.887, 11.554 35.394, 13.103 34.436 C 16.503 32.335, 20.810 17, 18 17 C 17.450 17, 16.996 18.462, 16.990 20.250 M 3.730 20.750 C 3.453 21.712, 2.903 23.288, 2.506 24.250 C 2.100 25.237, 2.226 26, 2.795 26 C 3.590 26, 6 20.999, 6 19.351 C 6 18.163, 4.145 19.306, 3.730 20.750 M 13.677 21.750 C 13.434 22.163, 12.910 24.075, 12.512 26 C 11.601 30.413, 13.585 28.932, 14.948 24.183 C 15.753 21.373, 14.881 19.704, 13.677 21.750 M 0.336 29 C 0.336 33.125, 0.513 34.813, 0.728 32.750 C 0.944 30.688, 0.944 27.313, 0.728 25.250 C 0.513 23.188, 0.336 24.875, 0.336 29 M 26.379 25.750 C 26.016 27.262, 25.109 29.712, 24.363 31.193 C 23.618 32.675, 23.390 34.123, 23.857 34.412 C 24.325 34.701, 25.282 33.714, 25.983 32.219 C 27.826 28.291, 28.934 23, 27.914 23 C 27.432 23, 26.741 24.238, 26.379 25.750 M 4.607 26.582 C 3.668 29.028, 3.872 29.351, 5.500 28 C 7.162 26.620, 7.490 25, 6.107 25 C 5.616 25, 4.941 25.712, 4.607 26.582 M 9.667 30.667 C 8.711 31.622, 8.845 33, 9.893 33 C 10.384 33, 11.045 32.325, 11.362 31.500 C 11.947 29.976, 10.881 29.452, 9.667 30.667" stroke="none" fill="#303030" fill-rule="evenodd"/></svg>